<svg viewBox="0 0 800 600">
  <defs>
    <linearGradient id="grad1" x1="0%" y1="0%" x2="100%" y2="0%">
      <stop offset="0%" stop-color="#a7d96a"/>
      <stop offset="100%" stop-color="#669933"/>
    </linearGradient>
    <linearGradient id="grad2" x1="0%" y1="0%" x2="100%" y2="100%">
      <stop offset="0%" stop-color="#8b4513"/>
      <stop offset="100%" stop-color="#d2691e"/>
    </linearGradient>
    <radialGradient id="glow" cx="50%" cy="50%" r="50%" fx="50%" fy="50%">
      <stop offset="0%" stop-color="#00ff00" stop-opacity="0.8"/>
      <stop offset="100%" stop-color="#00ff00" stop-opacity="0"/>
    </radialGradient>
  </defs>
  <rect width="800" height="600" fill="#d0f0c0"/>
  <path d="M100,400 C100,300 200,200 350,200 C500,200 600,300 600,400 L600,500 L100,500 Z" fill="url(#grad1)" stroke="#558b2f" stroke-width="5"/>
  <path d="M300,450 C250,400 200,350 200,300 C200,200 300,100 400,100 C500,100 600,200 600,300 C600,350 550,400 500,450 Z" fill="url(#grad2)" stroke="#332211" stroke-width="3"/>
  <path d="M350,200 C350,150 400,100 450,100 C500,100 550,150 550,200" fill="none" stroke="#332211" stroke-width="2"/>
  <ellipse cx="400" cy="300" rx="30" ry="25" fill="#ff9966"/>
  <ellipse cx="390" cy="290" rx="15" ry="10" fill="#ffa500"/>
  <ellipse cx="410" cy="290" rx="15" ry="10" fill="#ffa500"/>
  <circle cx="400" cy="280" r="5" fill="#00ff00"/>
  <circle cx="400" cy="285" r="5" fill="#00ff00"/>
  <circle cx="400" cy="290" r="5" fill="#00ff00"/>
  <circle cx="380" cy="270" r="2" fill="white"/>
  <circle cx="420" cy="270" r="2" fill="white"/>
  <ellipse cx="400" cy="320" rx="10" ry="5" fill="#000000"/>
  <circle cx="400" cy="300" r="10" fill="url(#glow)" stroke="#006600" stroke-width="2"/>
  <polygon points="600,500, 650,500, 625,450" fill="#558b2f"/>
  <path d="M650,450 C650,400 700,350 700,300 C700,250 650,200 600,200 C550,200 500,250 500,300 C500,350 550,400 600,400 Z" fill="url(#grad1)" stroke="#558b2f" stroke-width="2"/>
  <filter id="f1" x="0" y="0" width="1" height="1">
    <feGaussianBlur stdDeviation="2"/>
  </filter>
  <g filter="url(#f1)">
    <rect x="500" y="0" width="300" height="200" fill="#ffb347" opacity="0.5"/>
    <rect x="500" y="0" width="300" height="200" fill="#ffc0cb" opacity="0.3"/>
  </g>
  <path d="M700,200 C700,150 750,100 800,100" stroke="#332211" stroke-width="2" fill="none"/>
    <path d="M100,500 C100,550 150,600 200,600 L700,600 C750,600 800,550 800,500" stroke="#332211" stroke-width="2" fill="none"/>

</svg>