<svg viewBox="0 0 800 600">
  <defs>
    <linearGradient id="sunbeam" x1="0%" y1="0%" x2="100%" y2="0%">
      <stop offset="0%" stop-color="#ffe8a1"/>
      <stop offset="100%" stop-color="#fff5c7"/>
    </linearGradient>
    <radialGradient id="emeraldGlow" cx="50%" cy="50%" r="50%" fx="50%" fy="50%">
      <stop offset="0%" stop-color="#50e3c2"/>
      <stop offset="100%" stop-color="#00a187"/>
    </radialGradient>
    <filter id="glow">
      <feGaussianBlur stdDeviation="3" result="coloredBlur"/>
      <feMerge>
        <feMergeNode in="coloredBlur"/>
        <feMergeNode in="SourceGraphic"/>
      </feMerge>
    </filter>
  </defs>
  <rect x="0" y="0" width="800" height="600" fill="#4a3b2f"/>
  <rect x="100" y="100" width="600" height="400" fill="#705a46" rx="10"/>
  <path d="M200 150 L700 150 L700 450 L200 450 Z" fill="url(#sunbeam)" opacity="0.7"/>
  <circle cx="400" cy="300" r="20" fill="#ffe8a1"/>
  <circle cx="410" cy="280" r="10" fill="#ffe8a1"/>
  <circle cx="390" cy="290" r="8" fill="#ffe8a1"/>
  <path d="M350 250 C350 220, 450 220, 450 250 C450 280, 350 280, 350 250 Z" fill="#a07b60"/>
  <path d="M300 280 c 10 20, 60 20, 70 0 c 10 -20, -10 -50, -70 -30 z" fill="#a07b60" stroke="#705a46" stroke-width="2"/>
  <circle cx="400" cy="300" r="30" fill="#f0d9b5"/>
  <ellipse cx="370" cy="320" rx="20" ry="15" fill="#e6b8af" transform="rotate(-10 370 320)"/>
  <ellipse cx="430" cy="320" rx="15" ry="20" fill="#e6b8af" transform="rotate(10 430 320)"/>
  <path d="M360 300 C340 280, 460 280, 440 300" fill="none" stroke="#705a46" stroke-width="2"/>
  <circle cx="400" cy="300" r="25" fill="url(#emeraldGlow)" filter="url(#glow)"/>
  <path d="M360 300 C340 280, 320 260, 330 240 C340 220, 460 220, 480 240 C490 260, 470 280, 450 300" fill="#705a46" stroke="#4a3b2f" stroke-width="2"/>

  <g transform="translate(250,200)">
    <path d="M 0 0 C 50 0, 50 50, 0 50 C -50 50, -50 0, 0 0" fill="#503a26"/>
    <path d="M 0 50 C 50 100, 0 150, -50 100 Z" fill="#705a46"/>
  </g>

  <g transform="translate(500,200) scale(0.8)">
    <path d="M 0 0 C 50 0, 50 50, 0 50 C -50 50, -50 0, 0 0" fill="#503a26"/>
    <path d="M 0 50 C 50 100, 0 150, -50 100 Z" fill="#705a46"/>
  </g>


  <path d="M 250 350 C 200 300, 600 300, 550 350" fill="none" stroke="#705a46" stroke-width="2" stroke-dasharray="5 5"/>
  <path d="M 250 350 C 200 300, 200 400, 250 350" fill="none" stroke="#705a46" stroke-width="2" stroke-dasharray="5 5"/>


</svg>