<svg viewBox="0 0 800 600" xmlns="http://www.w3.org/2000/svg">
  <defs>
    <linearGradient id="sunbeam" x1="0%" y1="0%" x2="100%" y2="0%">
      <stop offset="0%" stop-color="#ffe8a0"/>
      <stop offset="100%" stop-color="#ffffd0"/>
    </linearGradient>
    <linearGradient id="chrome" x1="0%" y1="0%" x2="100%" y2="100%">
      <stop offset="0%" stop-color="#c0c0c0"/>
      <stop offset="50%" stop-color="#e0e0e0"/>
      <stop offset="100%" stop-color="#a0a0a0"/>
    </linearGradient>
    <radialGradient id="eyeGlow" cx="50%" cy="50%" r="50%" fx="50%" fy="50%">
      <stop offset="0%" stop-color="#ff4040"/>
      <stop offset="100%" stop-color="transparent"/>
    </radialGradient>
  </defs>
  <rect width="800" height="600" fill="#202020"/>
  <path d="M100,500 C100,400 200,300 300,300 C400,300 500,400 500,500 L500,550 L100,550 Z" fill="#402010"/>
  <path d="M600,500 C600,400 700,300 700,200 C700,100 600,50 500,50 C400,50 300,100 300,200 C300,300 400,400 500,400 C600,400 700,500 700,500 Z" fill="#503020"/>
  <path d="M200,100 C200,50 300,0 400,0 C500,0 600,50 600,100 L600,150 L200,150 Z" fill="#604030"/>
  <path d="M300,200 C300,150 400,100 500,100 C600,100 700,150 700,200 L700,250 L300,250 Z" fill="#705040"/>
  <path d="M500,50 C500,0 600,-50 700,-50 C800,-50 900,0 900,50 L900,100 L500,100 Z" fill="#806050"/>
  <path d="M100,300 C100,250 200,200 300,200 C400,200 500,250 500,300 L500,350 L100,350 Z" fill="#A08070"/>

  <path d="M350,350 C350,300 450,250 550,250 C650,250 750,300 750,350 L750,400 L350,400 Z" fill="url(#chrome)" stroke="black" stroke-width="2"/>
  <circle cx="450" cy="300" r="20" fill="red"/>
  <circle cx="550" cy="300" r="20" fill="red"/>


  <path d="M400 400 C400 380, 420 370, 450 370 C480 370, 500 380, 500 400 C500 420, 480 430, 450 430 C420 430, 400 420, 400 400 Z" fill="#FFA500" stroke="black" stroke-width="2"/>
  <circle cx="450" cy="390" r="10" fill="url(#eyeGlow)"/>
  <circle cx="450" cy="390" r="5" fill="#00FF00"/>

  <ellipse cx="450" cy="380" rx="20" ry="15" fill="#FFA500" transform="rotate(10 450 380)" />
  <ellipse cx="450" cy="380" rx="10" ry="7" fill="#FFD700" transform="rotate(10 450 380)" />
  <path d="M400,450 c0,50 100,50 100,0 c0,-50 -100,-50 -100,0 z" fill="url(#sunbeam)" />

  <path d="M 100 100 C 100 50, 150 0, 200 0 C 250 0, 300 50, 300 100" fill="#603000"/>
  <path d="M 500 100 C 500 50, 550 0, 600 0 C 650 0, 700 50, 700 100" fill="#603000"/>
  <path d="M 200 100 C 200 150, 250 200, 300 200 C 350 200, 400 150, 400 100" fill="#603000"/>
  <path d="M 500 100 C 500 150, 550 200, 600 200 C 650 200, 700 150, 700 100" fill="#603000"/>


</svg>