<svg viewBox="0 0 800 600">
  <defs>
    <linearGradient id="moonlight" x1="0%" y1="0%" x2="100%" y2="100%">
      <stop offset="0%" stop-color="#d9e6ff"/>
      <stop offset="100%" stop-color="#a6c2f2"/>
    </linearGradient>
    <linearGradient id="shadow" x1="0%" y1="0%" x2="100%" y2="0%">
      <stop offset="0%" stop-color="#222"/>
      <stop offset="100%" stop-color="transparent"/>
    </linearGradient>
    <radialGradient id="catEye" cx="50%" cy="50%" r="50%" fx="50%" fy="50%">
      <stop offset="0%" stop-color="#00c000"/>
      <stop offset="100%" stop-color="#50d050"/>
    </radialGradient>
  </defs>
  <rect x="0" y="0" width="800" height="600" fill="url(#moonlight)"/>
  <path d="M100,300 C100,150 300,100 400,200 C500,300 600,400 700,300 L700,500 L100,500 Z" fill="#554433" fill-opacity="0.6"/>
  <path d="M200,400 C200,300 300,250 400,350 C500,450 600,400 600,500 L600,550 L200,550 Z" fill="#776655" fill-opacity="0.4"/>
  <path d="M300,250 C300,200 350,180 400,220 C450,260 500,280 500,300 C500,320 450,340 400,380 C350,420 300,400 300,350 Z" fill="#332211" fill-opacity="0.8"/>

  <ellipse cx="400" cy="300" rx="50" ry="30" fill="url(#catEye)" transform="rotate(10 400 300)"/>
  <ellipse cx="380" cy="280" rx="10" ry="5" fill="#000"/>
  <path d="M450,350 C450,380 480,400 500,380" stroke="#000" stroke-width="2" stroke-linecap="round"/>
  <path d="M400,350 C400,380 370,400 350,380" stroke="#000" stroke-width="2" stroke-linecap="round"/>

  <path d="M100,450 C100,400 150,380 200,420 C250,460 300,480 400,450" stroke="#a6c2f2" stroke-width="5" stroke-linecap="round" stroke-dasharray="5,5"/>
  <path d="M500,450 C500,400 550,380 600,420 C650,460 700,480 700,450" stroke="#a6c2f2" stroke-width="5" stroke-linecap="round" stroke-dasharray="5,5"/>

  <polygon points="650,100 700,150 650,200" fill="#a6c2f2"/>
  <polygon points="150,100 100,150 150,200" fill="#a6c2f2"/>

  <filter id="shadowFilter">
    <feOffset result="offOut" in="SourceAlpha" dx="2" dy="2"/>
    <feGaussianBlur result="blurOut" in="offOut" stdDeviation="2"/>
    <feBlend in="SourceGraphic" in2="blurOut" mode="normal"/>
  </filter>
  <circle cx="300" cy="400" r="30" fill="#888" filter="url(#shadowFilter)"/>
  <circle cx="500" cy="400" r="30" fill="#888" filter="url(#shadowFilter)"/>
</svg>