<svg viewBox="0 0 800 600">
  <defs>
    <linearGradient id="skyGradient" x1="0%" y1="0%" x2="100%" y2="100%">
      <stop offset="0%" stop-color="#36454F" />
      <stop offset="100%" stop-color="#202830" />
    </linearGradient>
    <linearGradient id="seaGradient" x1="0%" y1="0%" x2="100%" y2="100%">
      <stop offset="0%" stop-color="#174873" />
      <stop offset="50%" stop-color="#206299" />
      <stop offset="100%" stop-color="#123456" />
    </linearGradient>
    <radialGradient id="hairGradient" cx="50%" cy="50%" r="50%" fx="50%" fy="50%">
      <stop offset="0%" stop-color="#F2E9D2" />
      <stop offset="100%" stop-color="#E0D0B8" />
    </radialGradient>
  </defs>
  <rect x="0" y="0" width="800" height="600" fill="url(#skyGradient)" />
  <path d="M0 300 C0 300, 200 400, 400 500, 600 600, 800 600, 800 300L800 600L0 600Z" fill="url(#seaGradient)" />
  <path d="M200 300 L300 200 L400 300 L500 200 L600 300 L700 200 Z" fill="#555" stroke="#333" stroke-width="2"/>
  <path d="M300 200 C300 100, 400 100, 400 200 C400 300, 300 300, 300 200" fill="transparent" stroke="#333" stroke-width="10" stroke-dasharray="10 5"/>
  <path d="M250 250 C250 150, 550 150, 550 250 C550 350, 250 350, 250 250" fill="transparent" stroke="#333" stroke-width="10" stroke-dasharray="10 5"/>
  <polygon points="350,200 450,200 400,150" fill="#888"/>
  <polygon points="350,200 450,200 400,150" fill="#888"/>
  <path d="M300 200 Q350 150, 400 200" fill="none" stroke="grey" stroke-width="5"/>
  <path d="M350 150 C350 100, 450 100, 450 150 C450 200, 350 200, 350 150" fill="none" stroke="grey" stroke-width="5"/>
  <path d="M400 100 C400 50, 500 50, 500 100" fill="none" stroke="grey" stroke-width="5"/>
  <circle cx="400" cy="100" r="20" fill="black"/>
  <circle cx="500" cy="100" r="20" fill="black"/>

  <path d="M350 350 C350 450, 450 450, 450 350" fill="none" stroke="black" stroke-width="5"/>
  <path d="M320 370 C320 470, 480 470, 480 370" fill="none" stroke="black" stroke-width="5"/>

  <path d="M400 300 L400 400" stroke="black" stroke-width="5" stroke-linecap="round"/>


  <circle cx="400" cy="400" r="20" fill="black"/>
  <path d="M370 400 C370 450, 430 450, 430 400" fill="url(#hairGradient)" stroke="black" stroke-width="3"/>
  <ellipse cx="400" cy="370" rx="15" ry="10" fill="#F2E9D2"/>
  <circle cx="400" cy="385" r="5" fill="#FF8C00"/>
  <path d="M400 420 L380 450 L420 450 Z" fill="#FF8C00"/>
  <path d="M400 420 L380 450 L420 450 Z" fill="#FF8C00"/>
  <path d="M400 420 L380 450 L420 450 Z" fill="#FF8C00"/>
  <path d="M400 420 L380 450 L420 450 Z" fill="#FF8C00"/>


</svg>