<svg viewBox="0 0 800 600" xmlns="http://www.w3.org/2000/svg"><defs><linearGradient id="a" x1="0%" y1="0%" x2="100%" y2="0%"><stop offset="0%" stop-color="#5882FA"/><stop offset="100%" stop-color="#2B54FF"/></linearGradient><linearGradient id="b" x1="0%" y1="0%" x2="0%" y2="100%"><stop offset="0%" stop-color="#808080"/><stop offset="100%" stop-color="#404040"/></linearGradient><linearGradient id="c" x1="0%" y1="0%" x2="100%" y2="100%"><stop offset="0%" stop-color="#A0522D"/><stop offset="100%" stop-color="#8B4513"/></linearGradient></defs><path d="M0,300c100,100,200,150,500,200c300,50,400,100,600,100v200H0V300z" fill="url(#b)"/>	<path d="M0,300c100,100,200,150,500,200c300,50,400,100,600,100v200H0V300z" fill="url(#b)" stroke="#000" stroke-width="3" stroke-opacity="0.5"/>	<path d="M200,350c50,50,100,100,200,150c100,50,200,100,300,100v100H200V350z" fill="url(#c)"/>	<path d="M500,200c-50,50-100,100-150,150c-50,50-100,100-150,100v100h150v-100c0,-50,50,-100,100,-100c50,0,100,50,100,100V450H500V200z" fill="url(#c)"/>	<path d="M350,400c-20,20-40,40-60,60c-20,20-40,40-60,40c-20,0-40,-20-60,-40c-20,-20-40,-40-60,-60c-20,-20-40,-40-40,-60c0,-20,20,-40,40,-60c20,-20,40,-40,60,-40c20,0,40,20,60,40c20,20,40,40,60,60c20,20,40,40,40,60" fill="url(#a)"/>	<ellipse cx="350" cy="400" rx="20" ry="15" fill="#fff" stroke="#000" stroke-width="2"/>	<path d="M300,450c-20,0-40,10-60,30c-20,20-40,40-40,60c0,20,20,40,40,60c20,20,40,30,60,30c20,0,40,-10,60,-30c20,-20,40,-40,40,-60c0,-20,-20,-40,-40,-60" fill="url(#a)"/>	<ellipse cx="300" cy="450" rx="15" ry="10" fill="#fff" stroke="#000" stroke-width="2"/>	<path d="M400,400L450,350L500,400L450,450Z" fill="#808080"/>	<path d="M400,400L450,350L500,400L450,450Z" fill="#808080" stroke="#000" stroke-width="2"/>	<path d="M300,400c-10,0-20,10-20,20c0,10,10,20,20,20c10,0,20,-10,20,-20c0,-10,-10,-20,-20,-20z" fill="#fff"/>	<path d="M350,350c-5,-5-10,-10-15,-15c-5,-5-10,-10-15,-10c-5,0-10,5-15,10c-5,5-10,10-15,15c-5,5-10,10-10,15c0,5,5,10,10,15c5,5,10,10,15,10c5,0,10,-5,15,-10c5,-5,10,-10,15,-15c5,-5,10,-10,10,-15c0,-5,-5,-10,-10,-15z" fill="#fff"/>	<path d="M400,300c-5,-5-10,-10-15,-15c-5,-5-10,-10-15,-10c-5,0-10,5-15,10c-5,5-10,10-15,15c-5,5-10,10-10,15c0,5,5,10,10,15c5,5,10,10,15,10c5,0,10,-5,15,-10c5,-5,10,-10,15,-15c5,-5,10,-10,10,-15c0,-5,-5,-10,-10,-15z" fill="#fff"/>	</svg>